<svg width="30" height="23" viewBox="0 0 30 23" fill="none" xmlns="http://www.w3.org/2000/svg">
<path d="M19.7081 15.0346H18.6241C18.3268 15.0346 18.0548 15.2026 17.9228 15.468L16.9214 17.4706C16.7774 17.76 16.3641 17.76 16.2201 17.4706L13.7708 12.5706C13.6281 12.2866 13.2254 12.28 13.0748 12.56L11.9601 14.6226C11.8228 14.876 11.5574 15.0346 11.2694 15.0346H10.2921" stroke="white" stroke-width="2" stroke-linecap="round" stroke-linejoin="round"/>
<path d="M5.55874 12H4.33474C2.62541 12 1.35741 13.5866 1.73341 15.2533L2.63608 19.2533C2.91074 20.4693 3.99074 21.3333 5.23741 21.3333H6.83208C7.26008 21.3333 7.57608 20.9373 7.48274 20.52L5.76008 12.892C4.42274 6.96798 8.92674 1.33331 15.0001 1.33331V1.33331V1.33331C21.0734 1.33331 25.5774 6.96798 24.2401 12.892L22.5187 20.52C22.4241 20.9373 22.7414 21.3333 23.1681 21.3333H24.7627C26.0094 21.3333 27.0894 20.4693 27.3641 19.2533L28.2667 15.2533C28.6427 13.5866 27.3747 12 25.6654 12H24.4414" stroke="#04D361" stroke-width="2" stroke-linecap="round" stroke-linejoin="round"/>
</svg>
